<svg width="15" height="22" viewBox="0 0 15 22" fill="none" xmlns="http://www.w3.org/2000/svg">
<path d="M14 9.18182V11C14 12.6877 13.3152 14.3064 12.0962 15.4998C10.8772 16.6932 9.22391 17.3636 7.5 17.3636M7.5 17.3636C5.77609 17.3636 4.12279 16.6932 2.90381 15.4998C1.68482 14.3064 1 12.6877 1 11V9.18182M7.5 17.3636V21M3.78571 21H11.2143M7.5 1C6.76118 1 6.05262 1.28734 5.5302 1.7988C5.00778 2.31026 4.71429 3.00396 4.71429 3.72727V11C4.71429 11.7233 5.00778 12.417 5.5302 12.9285C6.05262 13.4399 6.76118 13.7273 7.5 13.7273C8.23882 13.7273 8.94737 13.4399 9.4698 12.9285C9.99222 12.417 10.2857 11.7233 10.2857 11V3.72727C10.2857 3.00396 9.99222 2.31026 9.4698 1.7988C8.94737 1.28734 8.23882 1 7.5 1Z" stroke="white" stroke-width="2" stroke-linecap="round" stroke-linejoin="round"/>
</svg>
