<svg width="11" height="20" viewBox="0 0 11 20" fill="none" xmlns="http://www.w3.org/2000/svg">
<path d="M5.48755 3.13895L8.52697 9.05037H2.44895L5.48755 3.13895ZM10.9921 9.96074C11.0157 9.76073 10.9796 9.55782 10.8874 9.37932L6.38696 0.622505C6.1877 0.113894 5.62375 -0.132508 5.12752 0.071862C4.88301 0.17289 4.68861 0.371477 4.59047 0.622505L0.0885066 9.38129C-0.158635 9.9993 0.129508 10.7058 0.732389 10.9591C0.826168 10.9984 0.92431 11.0255 1.02437 11.0389H10.0305C10.5658 11.0389 11 10.5943 11 10.0457C11 10.0155 10.9947 9.99012 10.9921 9.96074Z" fill="white"/>
<path d="M9.47354 13.533H7.42156C7.15587 13.5327 6.94003 13.7528 6.93927 14.0251V15.8157C6.93927 15.8157 6.93619 16.4915 6.78237 16.6225C6.62894 16.7535 6.65042 16.9082 6.2422 16.9082H4.50845C4.10114 16.9082 4.12258 16.7533 3.96831 16.6225C3.81375 16.4917 3.81153 15.8157 3.81153 15.8157V14.0262C3.81108 13.7537 3.59553 13.533 3.32955 13.533H1.27827C1.01319 13.5327 0.797646 13.7532 0.797195 14.0251V16.1289C0.797195 16.4015 1.01248 16.6225 1.27827 16.623H2.98765C2.98765 16.623 3.52779 16.6977 3.72602 16.9753C3.83549 17.2086 3.88823 17.4654 3.87958 17.7237V19.5069C3.87913 19.779 4.09437 19.9995 4.35945 20H6.41193C6.67788 20.0005 6.89372 19.7795 6.89372 19.5072V17.4404C6.90286 17.2773 6.94797 17.1181 7.02613 16.9753C7.22524 16.6984 7.76496 16.623 7.76496 16.623H9.47354C9.73953 16.623 9.95492 16.402 9.95492 16.1294V14.0262C9.95537 13.754 9.74025 13.5335 9.4746 13.533" fill="white"/>
</svg>
